<?xml version="1.0" standalone="no"?><!DOCTYPE svg PUBLIC "-//W3C//DTD SVG 1.1//EN" "http://www.w3.org/Graphics/SVG/1.1/DTD/svg11.dtd"><svg t="1626165909576" class="icon" viewBox="0 0 1024 1024" version="1.1" xmlns="http://www.w3.org/2000/svg" p-id="16220" width="200" height="200" xmlns:xlink="http://www.w3.org/1999/xlink"><defs><style type="text/css"></style></defs><path d="M823.5 233.3h-622c-16.5 0-30-13.5-30-30s13.5-30 30-30h622c16.5 0 30 13.5 30 30s-13.5 30-30 30zM823.5 542h-622c-16.5 0-30-13.5-30-30s13.5-30 30-30h622c16.5 0 30 13.5 30 30s-13.5 30-30 30zM823.5 854.4h-622c-16.5 0-30-13.5-30-30s13.5-30 30-30h622c16.5 0 30 13.5 30 30s-13.5 30-30 30z" p-id="16221" fill="#FFFFFF"></path></svg>