<?xml version="1.0" standalone="no"?><!DOCTYPE svg PUBLIC "-//W3C//DTD SVG 1.1//EN" "http://www.w3.org/Graphics/SVG/1.1/DTD/svg11.dtd"><svg t="1626267204852" class="icon" viewBox="0 0 1024 1024" version="1.1" xmlns="http://www.w3.org/2000/svg" p-id="8375" xmlns:xlink="http://www.w3.org/1999/xlink" width="200" height="200"><defs><style type="text/css"></style></defs><path d="M0 512c0-59.733 46.933-106.667 106.667-106.667S213.333 452.267 213.333 512 166.4 618.667 106.667 618.667 0 571.733 0 512z m810.667 0c0-59.733 46.933-106.667 106.666-106.667S1024 452.267 1024 512s-46.933 106.667-106.667 106.667S810.667 571.733 810.667 512z m-405.334 0c0-59.733 46.934-106.667 106.667-106.667S618.667 452.267 618.667 512 571.733 618.667 512 618.667 405.333 571.733 405.333 512z" fill="#707070" p-id="8376"></path></svg>