<?xml version="1.0" standalone="no"?><!DOCTYPE svg PUBLIC "-//W3C//DTD SVG 1.1//EN" "http://www.w3.org/Graphics/SVG/1.1/DTD/svg11.dtd"><svg t="1626169562105" class="icon" viewBox="0 0 1024 1024" version="1.1" xmlns="http://www.w3.org/2000/svg" p-id="27024" xmlns:xlink="http://www.w3.org/1999/xlink" width="200" height="200"><defs><style type="text/css"></style></defs><path d="M403 106.3H166.2c-32.7 0-59.7 25-59.7 59.7v236.8c0 32.7 25 59.7 59.7 59.7H403c32.7 0 59.7-25 59.7-59.7V165.9c0.1-32.7-26.9-59.6-59.7-59.6zM599.5 462.5h236.8c32.7 0 59.7-25 59.7-59.7v-237c0.1-32.7-25-59.7-59.7-59.7H599.5c-32.7 0-59.7 25-59.7 59.7v236.8c2 33 27 59.9 59.7 59.9zM403 560.8H166.2c-32.7 0-59.7 25-59.7 59.7v236.8c0 32.7 25 59.7 59.7 59.7H403c32.7 0 59.7-25 59.7-59.7V620.4c0.1-34.6-26.9-59.6-59.7-59.6zM911.5 882.4l-63.6-63.6c17.4-25 26.9-57.7 26.9-90.5 0-92.4-75.1-167.5-167.5-167.5s-167.5 75.1-167.5 167.5 75.1 167.5 167.7 167.5c44.3 0 82.8-17.4 111.7-44.3l59.7 59.7c3.8 3.8 9.6 3.8 15.4 0l15.4-15.4c5.6-3.7 5.6-9.6 1.8-13.4z m-107.9-69.3l-1.9 3.8c-23.1 23.1-55.8 38.5-92.4 38.5-71.2 0-129.1-57.7-129.1-129.1S638 597.2 709.3 597.2s129.1 57.7 129.1 129.1c-2.1 34.8-13.6 65.6-34.8 86.8z" fill="#bfbfbf" p-id="27025"></path></svg>