<?xml version="1.0" standalone="no"?><!DOCTYPE svg PUBLIC "-//W3C//DTD SVG 1.1//EN" "http://www.w3.org/Graphics/SVG/1.1/DTD/svg11.dtd"><svg t="1626169769016" class="icon" viewBox="0 0 1024 1024" version="1.1" xmlns="http://www.w3.org/2000/svg" p-id="32196" xmlns:xlink="http://www.w3.org/1999/xlink" width="200" height="200"><defs><style type="text/css"></style></defs><path d="M926.64 0H97.4C43.64 0 0 43.64 0 97.4v829.24C0 980.36 43.64 1024 97.4 1024h829.24c53.76 0 97.4-43.64 97.4-97.4V97.36C1024 43.64 980.4 0 926.64 0z m-156.16 679.44" fill="#bfbfbf" p-id="32197" data-spm-anchor-id="a313x.7781069.0.i34" class="selected"></path><path d="M849.4 383.56c-27.4 24.04-61.48 32.32-108.84 17.4-47.36-14.92-73.92-36.48-163.64-50.56-89.72-14.08-147.88 3.32-162.8 5.8-14.96 2.48-131.24 44.72-153.68 53.04-22.44 8.28-83.92 0-108.8-54.68-24.92-54.68-24.92-173.2-6.64-203.84 18.28-30.68 49-76.24 121.28-64.64 0 0 143.72 61.32 195.2 76.24 51.48 14.92 93.04 2.48 103.84 0 10.8-2.48 166.96-67.96 189.4-75.4 22.44-7.48 53.16 1.64 56.48 2.48 3.32 0.84 74.76 19.88 80.56 133.4 2.52 83.68-14.96 136.72-42.36 160.76z" fill="#FFFFFF" p-id="32198"></path><path d="M800 553.24c-36.68 59.48-139.32 104.56-139.32 104.56-32.36 10.64-48.52-20.04-57.88-42.56-9.32-22.56-56-88.92-65.92-98.32-9.96-9.4-27.36-8.76-44.16-3.76-0.4 0.12-0.84 0.28-1.28 0.4-5.36 5-9.64 9-12.44 11.52-18.68 16.92-64.68 108.32-72.16 117.72-7.48 9.4-18.68 20.04-41.08 14.4-49.16-10.04-126.28-80.76-135-89.52-8.72-8.76-11.2-21.92-10.56-28.8 0.6-6.88-11.8-15.68 82.12-77.64 174.8-112.72 326.6-45.08 326.6-45.08-0.32 0.04-0.6 0.12-0.92 0.2 2.16 0.8 4.12 1.56 5.88 2.28 16.8 6.88 92.68 47.56 103.28 53.84 10.6 6.24 84.64 48.84 62.84 80.76zM496 776H304v-23.84h81.04c-3.32-8.24-5.56-13.52-6.68-15.88l27.24-8.28c1.68 3.2 6.4 13.52 11.2 24.16H496V776zM416.88 918.2c0 8.88-3.04 14.88-9.12 18.08-5 3.16-16.88 5.04-35.68 5.72-1.68-9.52-4.44-19.36-8.28-29.48 17.72 1.28 25.72-1.92 24.04-9.52v-48.52H322V786h156v68.48h-61.12v63.72z" fill="#FFFFFF" p-id="32199"></path><path d="M475.76 928c-10.28-10.68-24.84-24.32-43.76-41 7.56-7.32 13.76-15 18.64-23 17.28 13.36 32.4 26.36 45.36 39-7.04 8.04-13.8 16.4-20.24 25zM327.8 928c-16.4-12.4-24.32-19.28-23.76-20.6 19.8-13.04 27.16-22.48 36.84-43.4 18.08 11.12 27.16 17 27.16 17.64-15.32 20.92-23.84 31.32-40.24 46.36zM704 736.68v16.96h-73.8v9.16h63.28v17.2h-152.48v-17.2h62.44v-9.16H528v-16.96h75.4V724h8.12c15.12 0 22.16 1.2 21.08 3.6 0 1.2-0.52 2.44-1.64 3.6-0.52 1.76-0.8 3.6-0.8 5.44H704zM712 860h-192v-18.76h50.28a3.456 3.456 0 0 1-0.4-0.64c-0.84-1.36-5.56-7.96-7.72-11.2h-12.68V788h138.64v41.4h-15.92c-2.56 2.96-8.04 8.64-11.84 11.84H712V860zM684 924h-27.76v-10.48l-82.84-0.16v9.56H548V868l136 0.2z" fill="#FFFFFF" p-id="32200"></path><path d="M658.6 891.2l-87.16-0.2v8.76l87.16 0.2v-8.76zM348 813.6l0.12 18.28h104.56l-0.12-18.28H348z m224 33.48h0.4c-0.08-0.16-0.24-0.12-0.4 0z m49.32-624.92c-116.92 68.92-218 0-218 0-11.24-6.96-37.88 5.32-21.64 31.2 103.2 79.2 240.92 22.16 260.44 0.4 19.56-21.76-7.48-40.24-20.8-31.6z m-45.6 587.84H660v10h-84.28v-10z m0 0" fill="#bfbfbf" p-id="32201" data-spm-anchor-id="a313x.7781069.0.i35" class="selected"></path></svg>